<?xml version="1.0" encoding="UTF-8"?>
<svg width="22px" height="22px" viewBox="0 0 22 22" version="1.1" xmlns="http://www.w3.org/2000/svg" xmlns:xlink="http://www.w3.org/1999/xlink">
    <!-- Generator: Sketch 52.2 (67145) - http://www.bohemiancoding.com/sketch -->
    <title>Settings</title>
    <desc>Created with Sketch.</desc>
    <g id="页面1" stroke="none" stroke-width="1" fill="none" fill-rule="evenodd" fill-opacity="0.3">
        <g id="iPhone-XS备份-2" transform="translate(-318.000000, -744.000000)" fill="#FFFFFF">
            <path d="M329,763.612395 L325.756055,765.77256 C325.13317,766.187343 324.291974,766.018643 323.87719,765.395758 C323.779358,765.248842 323.711173,765.084228 323.676465,764.911165 L322.910117,761.089883 L319.088835,760.323535 C318.355092,760.176384 317.879565,759.46228 318.026716,758.728537 C318.061423,758.555475 318.129608,758.39086 318.22744,758.243945 L320.387605,755 L318.22744,751.756055 C317.812657,751.13317 317.981357,750.291974 318.604242,749.87719 C318.751158,749.779358 318.915772,749.711173 319.088835,749.676465 L322.910117,748.910117 L323.676465,745.088835 C323.823616,744.355092 324.53772,743.879565 325.271463,744.026716 C325.444525,744.061423 325.60914,744.129608 325.756055,744.22744 L329,746.387605 L332.243945,744.22744 C332.86683,743.812657 333.708026,743.981357 334.12281,744.604242 C334.220642,744.751158 334.288827,744.915772 334.323535,745.088835 L335.089883,748.910117 L338.911165,749.676465 C339.644908,749.823616 340.120435,750.53772 339.973284,751.271463 C339.938577,751.444525 339.870392,751.60914 339.77256,751.756055 L337.612395,755 L339.77256,758.243945 C340.187343,758.86683 340.018643,759.708026 339.395758,760.12281 C339.248842,760.220642 339.084228,760.288827 338.911165,760.323535 L335.089883,761.089883 L334.323535,764.911165 C334.176384,765.644908 333.46228,766.120435 332.728537,765.973284 C332.555475,765.938577 332.39086,765.870392 332.243945,765.77256 L329,763.612395 Z M329,758.387529 C330.870881,758.387529 332.387529,756.870881 332.387529,755 C332.387529,753.129119 330.870881,751.612471 329,751.612471 C327.129119,751.612471 325.612471,753.129119 325.612471,755 C325.612471,756.870881 327.129119,758.387529 329,758.387529 Z" id="Settings"></path>
        </g>
    </g>
</svg>