<?xml version="1.0" encoding="UTF-8"?>
<svg width="22px" height="22px" viewBox="0 0 22 22" version="1.1" xmlns="http://www.w3.org/2000/svg" xmlns:xlink="http://www.w3.org/1999/xlink">
    <!-- Generator: Sketch 52.2 (67145) - http://www.bohemiancoding.com/sketch -->
    <title>Case</title>
    <desc>Created with Sketch.</desc>
    <g id="页面1" stroke="none" stroke-width="1" fill="none" fill-rule="evenodd" fill-opacity="0.3">
        <g id="iPhone-XS" transform="translate(-224.000000, -744.000000)" fill="#FFFFFF">
            <path d="M224,756.666667 L246,756.666667 L246,764 C246,765.104569 245.104569,766 244,766 L226,766 C224.895431,766 224,765.104569 224,764 L224,756.666667 Z M229.866667,748 C229.866667,745.790861 231.836614,744 234.266667,744 L235.733333,744 C238.163386,744 240.133333,745.790861 240.133333,748 L243.066667,748 C244.686702,748 246,749.193907 246,750.666667 L246,754 L224,754 L224,750.666667 C224,749.193907 225.313298,748 226.933333,748 L229.866667,748 Z M237.933333,748 C237.933333,746.895431 236.94836,746 235.733333,746 L234.266667,746 C233.05164,746 232.066667,746.895431 232.066667,748 L237.933333,748 Z" id="Case"></path>
        </g>
    </g>
</svg>