<?xml version="1.0" encoding="UTF-8"?>
<svg width="24px" height="22px" viewBox="0 0 24 22" version="1.1" xmlns="http://www.w3.org/2000/svg" xmlns:xlink="http://www.w3.org/1999/xlink">
    <!-- Generator: Sketch 52.2 (67145) - http://www.bohemiancoding.com/sketch -->
    <title>Shape</title>
    <desc>Created with Sketch.</desc>
    <g id="页面1" stroke="none" stroke-width="1" fill="none" fill-rule="evenodd" fill-opacity="0.3">
        <g id="昨日收益" transform="translate(-129.000000, -744.000000)" fill="#FFFFFF">
            <path d="M148.25,746.75 L149.625,746.75 C151.143783,746.75 152.375,747.981217 152.375,749.5 L152.375,763.25 C152.375,764.768783 151.143783,766 149.625,766 L131.75,766 C130.231217,766 129,764.768783 129,763.25 L129,749.5 C129,747.981217 130.231217,746.75 131.75,746.75 L133.125,746.75 L133.125,746.0625 C133.125,744.923413 134.048413,744 135.1875,744 C136.326587,744 137.25,744.923413 137.25,746.0625 L137.25,746.75 L144.125,746.75 L144.125,746.0625 C144.125,744.923413 145.048413,744 146.1875,744 C147.326587,744 148.25,744.923413 148.25,746.0625 L148.25,746.75 Z M132.78125,752.25 C132.211706,752.25 131.75,752.711706 131.75,753.28125 C131.75,753.850794 132.211706,754.3125 132.78125,754.3125 L148.59375,754.3125 C149.163294,754.3125 149.625,753.850794 149.625,753.28125 C149.625,752.711706 149.163294,752.25 148.59375,752.25 L132.78125,752.25 Z" id="Shape"></path>
        </g>
    </g>
</svg>